<svg data-v-423bf9ae="" xmlns="http://www.w3.org/2000/svg" viewBox="0 0 258.54102901170063 60" class="font"><!----><!----><defs data-v-423bf9ae=""><linearGradient data-v-423bf9ae="" gradientTransform="rotate(25)" id="a8daf136-f875-4d19-80b2-c01e9ab4afe8" x1="0%" y1="0%" x2="100%" y2="0%"><stop data-v-423bf9ae="" offset="0%" style="stop-color: rgb(120, 49, 146); stop-opacity: 1;"></stop><stop data-v-423bf9ae="" offset="100%" style="stop-color: rgb(89, 188, 200); stop-opacity: 1;"></stop></linearGradient></defs><g data-v-423bf9ae="" id="39b37397-549b-4683-9440-8b921e763da6" fill="url(#a8daf136-f875-4d19-80b2-c01e9ab4afe8)" transform="matrix(6.079027426108357,0,0,6.079027426108357,-4.498477271482869,-4.863222669005431)"><path d="M5.11 1.19L5.11 1.19L5.11 1.19Q5.60 1.19 6.05 1.25L6.05 1.25L6.05 1.25Q6.51 1.32 6.85 1.39L6.85 1.39L6.85 1.39Q7.24 1.47 7.57 1.58L7.57 1.58L7.57 2.79L7.57 2.79Q6.99 2.63 6.36 2.54L6.36 2.54L6.36 2.54Q5.74 2.45 5.14 2.47L5.14 2.47L5.14 2.47Q4.54 2.49 3.99 2.67L3.99 2.67L3.99 2.67Q3.44 2.86 3.03 3.25L3.03 3.25L3.03 3.25Q2.62 3.65 2.38 4.30L2.38 4.30L2.38 4.30Q2.14 4.96 2.14 5.94L2.14 5.94L2.14 5.94Q2.14 6.92 2.38 7.57L2.38 7.57L2.38 7.57Q2.62 8.23 3.03 8.63L3.03 8.63L3.03 8.63Q3.44 9.03 3.99 9.21L3.99 9.21L3.99 9.21Q4.54 9.39 5.14 9.41L5.14 9.41L5.14 9.41Q5.74 9.44 6.36 9.34L6.36 9.34L6.36 9.34Q6.99 9.24 7.57 9.09L7.57 9.09L7.57 10.23L7.57 10.23Q7.24 10.36 6.85 10.46L6.85 10.46L6.85 10.46Q6.51 10.54 6.05 10.61L6.05 10.61L6.05 10.61Q5.60 10.67 5.11 10.67L5.11 10.67L5.11 10.67Q4.44 10.67 3.67 10.46L3.67 10.46L3.67 10.46Q2.90 10.26 2.25 9.74L2.25 9.74L2.25 9.74Q1.60 9.21 1.17 8.29L1.17 8.29L1.17 8.29Q0.74 7.38 0.74 5.94L0.74 5.94L0.74 5.94Q0.74 4.98 0.94 4.26L0.94 4.26L0.94 4.26Q1.13 3.53 1.47 3.00L1.47 3.00L1.47 3.00Q1.81 2.48 2.25 2.13L2.25 2.13L2.25 2.13Q2.70 1.78 3.19 1.57L3.19 1.57L3.19 1.57Q3.67 1.36 4.17 1.27L4.17 1.27L4.17 1.27Q4.66 1.19 5.11 1.19ZM11.94 3.19L11.94 3.19L11.94 3.19Q12.71 3.23 13.31 3.51L13.31 3.51L13.31 3.51Q13.57 3.64 13.82 3.82L13.82 3.82L13.82 3.82Q14.07 4.00 14.27 4.27L14.27 4.27L14.27 4.27Q14.46 4.54 14.58 4.89L14.58 4.89L14.58 4.89Q14.70 5.25 14.70 5.73L14.70 5.73L14.70 10.50L13.47 10.50L13.30 9.63L13.30 9.63Q13.30 9.63 13.16 9.80L13.16 9.80L13.16 9.80Q13.02 9.97 12.75 10.16L12.75 10.16L12.75 10.16Q12.49 10.35 12.10 10.51L12.10 10.51L12.10 10.51Q11.72 10.67 11.24 10.67L11.24 10.67L11.24 10.67Q10.08 10.67 9.37 10.14L9.37 10.14L9.37 10.14Q8.65 9.62 8.65 8.46L8.65 8.46L8.65 8.46Q8.65 7.78 8.97 7.34L8.97 7.34L8.97 7.34Q9.30 6.90 9.77 6.64L9.77 6.64L9.77 6.64Q10.23 6.38 10.76 6.29L10.76 6.29L10.76 6.29Q11.28 6.19 11.69 6.19L11.69 6.19L13.38 6.19L13.38 5.71L13.38 5.71Q13.33 5.07 13.04 4.75L13.04 4.75L13.04 4.75Q12.75 4.42 12.34 4.32L12.34 4.32L12.34 4.32Q11.93 4.21 11.45 4.29L11.45 4.29L11.45 4.29Q10.96 4.37 10.54 4.50L10.54 4.50L10.54 4.50Q10.12 4.63 9.81 4.78L9.81 4.78L9.81 4.78Q9.51 4.93 9.42 4.98L9.42 4.98L9.42 3.86L9.42 3.86Q9.81 3.68 10.23 3.53L10.23 3.53L10.23 3.53Q10.60 3.40 11.05 3.30L11.05 3.30L11.05 3.30Q11.49 3.19 11.94 3.19ZM11.35 9.60L11.35 9.60L11.35 9.60Q12.19 9.60 12.73 9.21L12.73 9.21L12.73 9.21Q13.26 8.81 13.38 8.16L13.38 8.16L13.38 7.14L12.64 7.14L12.64 7.14Q12.38 7.14 11.94 7.16L11.94 7.16L11.94 7.16Q11.49 7.18 11.07 7.29L11.07 7.29L11.07 7.29Q10.65 7.41 10.35 7.67L10.35 7.67L10.35 7.67Q10.04 7.92 10.04 8.40L10.04 8.40L10.04 8.40Q10.04 8.69 10.16 8.92L10.16 8.92L10.16 8.92Q10.29 9.14 10.48 9.30L10.48 9.30L10.48 9.30Q10.67 9.45 10.91 9.53L10.91 9.53L10.91 9.53Q11.14 9.60 11.35 9.60ZM24.67 3.19L24.67 3.19L24.67 3.19Q25.19 3.19 25.65 3.31L25.65 3.31L25.65 3.31Q26.11 3.43 26.45 3.78L26.45 3.78L26.45 3.78Q26.80 4.13 26.99 4.77L26.99 4.77L26.99 4.77Q27.19 5.40 27.19 6.43L27.19 6.43L27.19 10.50L25.86 10.50L25.86 6.29L25.86 6.29Q25.86 5.95 25.82 5.59L25.82 5.59L25.82 5.59Q25.77 5.24 25.64 4.93L25.64 4.93L25.64 4.93Q25.51 4.63 25.26 4.45L25.26 4.45L25.26 4.45Q25.00 4.26 24.60 4.26L24.60 4.26L24.60 4.26Q24.08 4.26 23.72 4.49L23.72 4.49L23.72 4.49Q23.37 4.72 23.14 5.10L23.14 5.10L23.14 5.10Q22.92 5.47 22.82 5.96L22.82 5.96L22.82 5.96Q22.72 6.45 22.72 6.96L22.72 6.96L22.72 10.50L21.39 10.50L21.39 6.29L21.39 6.29Q21.39 5.95 21.35 5.59L21.35 5.59L21.35 5.59Q21.31 5.24 21.17 4.93L21.17 4.93L21.17 4.93Q21.03 4.63 20.78 4.45L20.78 4.45L20.78 4.45Q20.54 4.26 20.13 4.26L20.13 4.26L20.13 4.26Q19.61 4.26 19.26 4.49L19.26 4.49L19.26 4.49Q18.90 4.72 18.68 5.10L18.68 5.10L18.68 5.10Q18.45 5.47 18.35 5.96L18.35 5.96L18.35 5.96Q18.26 6.45 18.26 6.96L18.26 6.96L18.26 10.50L16.94 10.50L16.94 3.36L18.03 3.36L18.24 4.41L18.24 4.41Q18.24 4.41 18.35 4.21L18.35 4.21L18.35 4.21Q18.47 4.02 18.73 3.79L18.73 3.79L18.73 3.79Q18.98 3.57 19.41 3.38L19.41 3.38L19.41 3.38Q19.84 3.19 20.47 3.19L20.47 3.19L20.47 3.19Q21.01 3.19 21.41 3.41L21.41 3.41L21.41 3.41Q21.80 3.63 22.04 3.89L22.04 3.89L22.04 3.89Q22.29 4.16 22.39 4.38L22.39 4.38L22.39 4.38Q22.50 4.59 22.50 4.59L22.50 4.59L22.50 4.59Q22.64 4.26 22.88 3.99L22.88 3.99L22.88 3.99Q23.13 3.72 23.42 3.55L23.42 3.55L23.42 3.55Q23.72 3.37 24.05 3.28L24.05 3.28L24.05 3.28Q24.37 3.19 24.67 3.19ZM30.97 3.36L30.97 10.50L29.65 10.50L29.65 3.36L30.97 3.36ZM31.15 1.65L31.15 1.65L31.15 1.65Q31.15 2.02 30.90 2.27L30.90 2.27L30.90 2.27Q30.65 2.52 30.30 2.52L30.30 2.52L30.30 2.52Q29.93 2.52 29.68 2.27L29.68 2.27L29.68 2.27Q29.43 2.02 29.43 1.65L29.43 1.65L29.43 1.65Q29.43 1.30 29.68 1.05L29.68 1.05L29.68 1.05Q29.93 0.80 30.30 0.80L30.30 0.80L30.30 0.80Q30.65 0.80 30.90 1.05L30.90 1.05L30.90 1.05Q31.15 1.30 31.15 1.65ZM35.88 9.52L35.88 10.50L35.88 10.50Q35.66 10.58 35.38 10.63L35.38 10.63L35.38 10.63Q35.10 10.67 34.86 10.67L34.86 10.67L34.86 10.67Q34.15 10.67 33.77 10.25L33.77 10.25L33.77 10.25Q33.39 9.83 33.39 9.03L33.39 9.03L33.39 1.62L34.71 1.62L34.71 9.00L34.71 9.00Q34.71 9.30 34.81 9.44L34.81 9.44L34.81 9.44Q34.92 9.59 35.17 9.59L35.17 9.59L35.17 9.59Q35.31 9.59 35.54 9.57L35.54 9.57L35.54 9.57Q35.77 9.55 35.88 9.52L35.88 9.52ZM40.52 3.19L40.52 3.19L40.52 3.19Q41.29 3.23 41.89 3.51L41.89 3.51L41.89 3.51Q42.14 3.64 42.39 3.82L42.39 3.82L42.39 3.82Q42.64 4.00 42.84 4.27L42.84 4.27L42.84 4.27Q43.04 4.54 43.16 4.89L43.16 4.89L43.16 4.89Q43.27 5.25 43.27 5.73L43.27 5.73L43.27 10.50L42.04 10.50L41.87 9.63L41.87 9.63Q41.87 9.63 41.73 9.80L41.73 9.80L41.73 9.80Q41.59 9.97 41.33 10.16L41.33 10.16L41.33 10.16Q41.06 10.35 40.68 10.51L40.68 10.51L40.68 10.51Q40.29 10.67 39.82 10.67L39.82 10.67L39.82 10.67Q38.65 10.67 37.94 10.14L37.94 10.14L37.94 10.14Q37.23 9.62 37.23 8.46L37.23 8.46L37.23 8.46Q37.23 7.78 37.55 7.34L37.55 7.34L37.55 7.34Q37.87 6.90 38.34 6.64L38.34 6.64L38.34 6.64Q38.81 6.38 39.33 6.29L39.33 6.29L39.33 6.29Q39.86 6.19 40.26 6.19L40.26 6.19L41.96 6.19L41.96 5.71L41.96 5.71Q41.90 5.07 41.62 4.75L41.62 4.75L41.62 4.75Q41.33 4.42 40.91 4.32L40.91 4.32L40.91 4.32Q40.50 4.21 40.02 4.29L40.02 4.29L40.02 4.29Q39.54 4.37 39.12 4.50L39.12 4.50L39.12 4.50Q38.70 4.63 38.39 4.78L38.39 4.78L38.39 4.78Q38.08 4.93 38.00 4.98L38.00 4.98L38.00 3.86L38.00 3.86Q38.39 3.68 38.81 3.53L38.81 3.53L38.81 3.53Q39.17 3.40 39.62 3.30L39.62 3.30L39.62 3.30Q40.07 3.19 40.52 3.19ZM39.93 9.60L39.93 9.60L39.93 9.60Q40.77 9.60 41.30 9.21L41.30 9.21L41.30 9.21Q41.83 8.81 41.96 8.16L41.96 8.16L41.96 7.14L41.22 7.14L41.22 7.14Q40.95 7.14 40.51 7.16L40.51 7.16L40.51 7.16Q40.07 7.18 39.65 7.29L39.65 7.29L39.65 7.29Q39.23 7.41 38.92 7.67L38.92 7.67L38.92 7.67Q38.61 7.92 38.61 8.40L38.61 8.40L38.61 8.40Q38.61 8.69 38.74 8.92L38.74 8.92L38.74 8.92Q38.86 9.14 39.05 9.30L39.05 9.30L39.05 9.30Q39.24 9.45 39.48 9.53L39.48 9.53L39.48 9.53Q39.72 9.60 39.93 9.60Z"></path></g><!----><!----></svg>